<svg xmlns="http://www.w3.org/2000/svg" viewBox="0 0 64 64">
  <g transform="translate(23.82,45.20) scale(0.0440,-0.0440)">
    <path d="M22 166V206H126V158Q126 90 183 90Q211 90 225.5 106.5Q240 123 240 160Q240 204 220.0 237.5Q200 271 146 318Q78 378 51.0 426.5Q24 475 24 536Q24 619 66.0 664.5Q108 710 188 710Q267 710 307.5 664.5Q348 619 348 534V505H244V541Q244 577 230.0 593.5Q216 610 189 610Q134 610 134 543Q134 505 154.5 472.0Q175 439 229 392Q298 332 324.0 283.0Q350 234 350 168Q350 82 307.5 36.0Q265 -10 184 -10Q104 -10 63.0 35.5Q22 81 22 166Z" fill="#080D1A"/>
  </g>
</svg>